<?xml version="1.0" encoding="UTF-8" standalone="no"?>
<!DOCTYPE svg PUBLIC "-//W3C//DTD SVG 1.1//EN"
 "http://www.w3.org/Graphics/SVG/1.1/DTD/svg11.dtd">
<!-- Generated by graphviz version 2.40.1 (20161225.0304)
 -->
<!-- Title: dependencies Pages: 1 -->
<svg width="1218pt" height="284pt"
 viewBox="0.00 0.00 1218.00 284.00" xmlns="http://www.w3.org/2000/svg" xmlns:xlink="http://www.w3.org/1999/xlink">
<g id="graph0" class="graph" transform="scale(1 1) rotate(0) translate(4 280)">
<title>dependencies</title>
<polygon fill="#ffffff" stroke="transparent" points="-4,4 -4,-280 1214,-280 1214,4 -4,4"/>
<text text-anchor="start" x="584.0091" y="-42.4" font-family="sans-serif" font-weight="bold" font-size="14.00" fill="#000000">Legend</text>
<polygon fill="#ffffb3" stroke="transparent" points="371,-10 371,-30 391,-30 391,-10 371,-10"/>
<text text-anchor="start" x="394.629" y="-15.4" font-family="sans-serif" font-size="14.00" fill="#000000"> &#160;Declarations</text>
<polygon fill="#8dd3c7" stroke="transparent" points="484,-10 484,-30 504,-30 504,-10 484,-10"/>
<text text-anchor="start" x="507.7251" y="-15.4" font-family="sans-serif" font-size="14.00" fill="#000000"> &#160;Module</text>
<polygon fill="#80b1d3" stroke="transparent" points="570,-10 570,-30 590,-30 590,-10 570,-10"/>
<text text-anchor="start" x="593.7812" y="-15.4" font-family="sans-serif" font-size="14.00" fill="#000000"> &#160;Bootstrap</text>
<polygon fill="#fdb462" stroke="transparent" points="667,-10 667,-30 687,-30 687,-10 667,-10"/>
<text text-anchor="start" x="690.6732" y="-15.4" font-family="sans-serif" font-size="14.00" fill="#000000"> &#160;Providers</text>
<polygon fill="#fb8072" stroke="transparent" points="763,-10 763,-30 783,-30 783,-10 763,-10"/>
<text text-anchor="start" x="786.7258" y="-15.4" font-family="sans-serif" font-size="14.00" fill="#000000"> &#160;Exports</text>
<g id="clust1" class="cluster">
<title>cluster_AppModule</title>
<polygon fill="none" stroke="#000000" stroke-dasharray="1,5" points="8,-70 8,-268 1202,-268 1202,-70 8,-70"/>
</g>
<g id="clust2" class="cluster">
<title>cluster_AppModule_declarations</title>
<polygon fill="none" stroke="#000000" points="218,-78 218,-130 1194,-130 1194,-78 218,-78"/>
</g>
<g id="clust10" class="cluster">
<title>cluster_AppModule_imports</title>
<polygon fill="none" stroke="#000000" points="16,-78 16,-130 210,-130 210,-78 16,-78"/>
</g>
<g id="clust12" class="cluster">
<title>cluster_AppModule_bootstrap</title>
<polygon fill="none" stroke="#000000" points="525,-208 525,-260 649,-260 649,-208 525,-208"/>
</g>
<!-- AppComponent -->
<g id="node1" class="node">
<title>AppComponent</title>
<polygon fill="#ffffb3" stroke="#000000" points="1185.9399,-122 1080.0601,-122 1080.0601,-86 1185.9399,-86 1185.9399,-122"/>
<text text-anchor="middle" x="1133" y="-99.8" font-family="Times,serif" font-size="14.00" fill="#000000">AppComponent</text>
</g>
<!-- AppModule -->
<g id="node8" class="node">
<title>AppModule</title>
<polygon fill="#8dd3c7" stroke="#000000" points="628.6571,-187 625.6571,-191 604.6571,-191 601.6571,-187 545.3429,-187 545.3429,-151 628.6571,-151 628.6571,-187"/>
<text text-anchor="middle" x="587" y="-164.8" font-family="Times,serif" font-size="14.00" fill="#000000">AppModule</text>
</g>
<!-- AppComponent&#45;&gt;AppModule -->
<g id="edge1" class="edge">
<title>AppComponent&#45;&gt;AppModule</title>
<path fill="none" stroke="#000000" d="M1133,-122.0109C1133,-144.4852 1133,-180 1133,-180 1133,-180 638.9371,-180 638.9371,-180"/>
<polygon fill="#000000" stroke="#000000" points="638.9371,-176.5001 628.9371,-180 638.9371,-183.5001 638.9371,-176.5001"/>
</g>
<!-- CarouselComponent -->
<g id="node2" class="node">
<title>CarouselComponent</title>
<polygon fill="#ffffb3" stroke="#000000" points="1062.594,-122 931.406,-122 931.406,-86 1062.594,-86 1062.594,-122"/>
<text text-anchor="middle" x="997" y="-99.8" font-family="Times,serif" font-size="14.00" fill="#000000">CarouselComponent</text>
</g>
<!-- CarouselComponent&#45;&gt;AppModule -->
<g id="edge2" class="edge">
<title>CarouselComponent&#45;&gt;AppModule</title>
<path fill="none" stroke="#000000" d="M997,-122.1289C997,-142.5724 997,-173 997,-173 997,-173 638.9504,-173 638.9504,-173"/>
<polygon fill="#000000" stroke="#000000" points="638.9504,-169.5001 628.9504,-173 638.9504,-176.5001 638.9504,-169.5001"/>
</g>
<!-- LoginComponent -->
<g id="node3" class="node">
<title>LoginComponent</title>
<polygon fill="#ffffb3" stroke="#000000" points="913.2758,-122 798.7242,-122 798.7242,-86 913.2758,-86 913.2758,-122"/>
<text text-anchor="middle" x="856" y="-99.8" font-family="Times,serif" font-size="14.00" fill="#000000">LoginComponent</text>
</g>
<!-- LoginComponent&#45;&gt;AppModule -->
<g id="edge3" class="edge">
<title>LoginComponent&#45;&gt;AppModule</title>
<path fill="none" stroke="#000000" d="M856,-122.2667C856,-140.5552 856,-166 856,-166 856,-166 638.7361,-166 638.7361,-166"/>
<polygon fill="#000000" stroke="#000000" points="638.7361,-162.5001 628.7361,-166 638.7361,-169.5001 638.7361,-162.5001"/>
</g>
<!-- SignupComponent -->
<g id="node4" class="node">
<title>SignupComponent</title>
<polygon fill="#ffffb3" stroke="#000000" points="780.5056,-122 659.4944,-122 659.4944,-86 780.5056,-86 780.5056,-122"/>
<text text-anchor="middle" x="720" y="-99.8" font-family="Times,serif" font-size="14.00" fill="#000000">SignupComponent</text>
</g>
<!-- SignupComponent&#45;&gt;AppModule -->
<g id="edge4" class="edge">
<title>SignupComponent&#45;&gt;AppModule</title>
<path fill="none" stroke="#000000" d="M720,-122.0091C720,-138.0494 720,-159 720,-159 720,-159 638.7171,-159 638.7171,-159"/>
<polygon fill="#000000" stroke="#000000" points="638.7172,-155.5001 628.7171,-159 638.7171,-162.5001 638.7172,-155.5001"/>
</g>
<!-- HelpComponent -->
<g id="node5" class="node">
<title>HelpComponent</title>
<polygon fill="#ffffb3" stroke="#000000" points="641.0452,-122 532.9548,-122 532.9548,-86 641.0452,-86 641.0452,-122"/>
<text text-anchor="middle" x="587" y="-99.8" font-family="Times,serif" font-size="14.00" fill="#000000">HelpComponent</text>
</g>
<!-- HelpComponent&#45;&gt;AppModule -->
<g id="edge5" class="edge">
<title>HelpComponent&#45;&gt;AppModule</title>
<path fill="none" stroke="#000000" d="M587,-122.1061C587,-122.1061 587,-140.991 587,-140.991"/>
<polygon fill="#000000" stroke="#000000" points="583.5001,-140.9909 587,-150.991 590.5001,-140.991 583.5001,-140.9909"/>
</g>
<!-- ListingDetailComponent -->
<g id="node6" class="node">
<title>ListingDetailComponent</title>
<polygon fill="#ffffb3" stroke="#000000" points="514.7091,-122 359.2909,-122 359.2909,-86 514.7091,-86 514.7091,-122"/>
<text text-anchor="middle" x="437" y="-99.8" font-family="Times,serif" font-size="14.00" fill="#000000">ListingDetailComponent</text>
</g>
<!-- ListingDetailComponent&#45;&gt;AppModule -->
<g id="edge6" class="edge">
<title>ListingDetailComponent&#45;&gt;AppModule</title>
<path fill="none" stroke="#000000" d="M437,-122.0091C437,-138.0494 437,-159 437,-159 437,-159 535.2166,-159 535.2166,-159"/>
<polygon fill="#000000" stroke="#000000" points="535.2167,-162.5001 545.2166,-159 535.2166,-155.5001 535.2167,-162.5001"/>
</g>
<!-- HomeComponent -->
<g id="node7" class="node">
<title>HomeComponent</title>
<polygon fill="#ffffb3" stroke="#000000" points="341.5451,-122 226.4549,-122 226.4549,-86 341.5451,-86 341.5451,-122"/>
<text text-anchor="middle" x="284" y="-99.8" font-family="Times,serif" font-size="14.00" fill="#000000">HomeComponent</text>
</g>
<!-- HomeComponent&#45;&gt;AppModule -->
<g id="edge7" class="edge">
<title>HomeComponent&#45;&gt;AppModule</title>
<path fill="none" stroke="#000000" d="M284,-122.2667C284,-140.5552 284,-166 284,-166 284,-166 535.1873,-166 535.1873,-166"/>
<polygon fill="#000000" stroke="#000000" points="535.1873,-169.5001 545.1873,-166 535.1872,-162.5001 535.1873,-169.5001"/>
</g>
<!-- AppComponent  -->
<g id="node11" class="node">
<title>AppComponent </title>
<polygon fill="#80b1d3" stroke="#000000" points="641.439,-252 532.561,-252 532.561,-216 641.439,-216 641.439,-252"/>
<text text-anchor="middle" x="587" y="-229.8" font-family="Times,serif" font-size="14.00" fill="#000000">AppComponent </text>
</g>
<!-- AppModule&#45;&gt;AppComponent  -->
<g id="edge10" class="edge">
<title>AppModule&#45;&gt;AppComponent </title>
<path fill="none" stroke="#000000" stroke-dasharray="1,5" d="M587,-187.1061C587,-187.1061 587,-205.991 587,-205.991"/>
<polygon fill="#000000" stroke="#000000" points="583.5001,-205.9909 587,-215.991 590.5001,-205.991 583.5001,-205.9909"/>
</g>
<!-- MaterialModule -->
<g id="node9" class="node">
<title>MaterialModule</title>
<polygon fill="#8dd3c7" stroke="#000000" points="202.4706,-122 199.4706,-126 178.4706,-126 175.4706,-122 95.5294,-122 95.5294,-86 202.4706,-86 202.4706,-122"/>
<text text-anchor="middle" x="149" y="-99.8" font-family="Times,serif" font-size="14.00" fill="#000000">MaterialModule</text>
</g>
<!-- MaterialModule&#45;&gt;AppModule -->
<g id="edge8" class="edge">
<title>MaterialModule&#45;&gt;AppModule</title>
<path fill="none" stroke="#000000" d="M149,-122.1289C149,-142.5724 149,-173 149,-173 149,-173 535.0027,-173 535.0027,-173"/>
<polygon fill="#000000" stroke="#000000" points="535.0028,-176.5001 545.0027,-173 535.0027,-169.5001 535.0028,-176.5001"/>
</g>
<!-- routes -->
<g id="node10" class="node">
<title>routes</title>
<polygon fill="#8dd3c7" stroke="#000000" points="78,-122 75,-126 54,-126 51,-122 24,-122 24,-86 78,-86 78,-122"/>
<text text-anchor="middle" x="51" y="-99.8" font-family="Times,serif" font-size="14.00" fill="#000000">routes</text>
</g>
<!-- routes&#45;&gt;AppModule -->
<g id="edge9" class="edge">
<title>routes&#45;&gt;AppModule</title>
<path fill="none" stroke="#000000" d="M51,-122.0109C51,-144.4852 51,-180 51,-180 51,-180 534.941,-180 534.941,-180"/>
<polygon fill="#000000" stroke="#000000" points="534.941,-183.5001 544.941,-180 534.9409,-176.5001 534.941,-183.5001"/>
</g>
</g>
</svg>
